<?xml version="1.0" encoding="UTF-8" standalone="no"?>
<!DOCTYPE svg PUBLIC "-//W3C//DTD SVG 1.1//EN" "http://www.w3.org/Graphics/SVG/1.1/DTD/svg11.dtd">
<svg width="100%" height="100%" viewBox="0 0 2043 1257" version="1.1" xmlns="http://www.w3.org/2000/svg" xmlns:xlink="http://www.w3.org/1999/xlink" xml:space="preserve" xmlns:serif="http://www.serif.com/" style="fill-rule:evenodd;clip-rule:evenodd;stroke-miterlimit:2;">
    <g transform="matrix(1,0,0,1,-9459.69,-4444.07)">
        <g id="Artboard1" transform="matrix(0.823488,0,0,0.358257,9459.69,4444.07)">
            <rect x="0" y="0" width="2480.32" height="3507.87" style="fill:none;"/>
            <clipPath id="_clip1">
                <rect x="0" y="0" width="2480.32" height="3507.87"/>
            </clipPath>
            <g clip-path="url(#_clip1)">
                <g transform="matrix(1.79471,0,0,4.12532,-142.052,-1461.18)">
                    <path d="M730.461,409.365C662.366,432.502 597.633,482.042 546.646,528.229C440.469,624.41 424.625,644.63 293.638,725.381C217.296,772.443 157.107,812.244 127.451,865.478C44.148,1015.01 143.371,1176.52 351.288,1176.52L1196.49,1176.52C1196.49,1176.52 1295.91,1178.57 1368.46,1098.65C1614.36,827.759 1206.52,247.608 730.461,409.365Z" style="fill:rgb(236,244,255);"/>
                </g>
                <g transform="matrix(1.79471,0,0,4.12532,-142.052,-1822.04)">
                    <path d="M509.191,562.755L1187.38,562.755C1211.69,562.755 1231.58,582.646 1231.58,606.955L1231.58,1002.25L464.989,1002.25L464.989,606.955C464.989,582.646 484.877,562.755 509.191,562.755Z" style="fill:url(#_Linear2);"/>
                </g>
                <g transform="matrix(1.79471,0,0,4.12532,-142.052,-1822.04)">
                    <path d="M496.758,1042.82L496.758,1042.81L496.746,1042.81C496.565,1042.69 496.445,1042.49 496.445,1042.25L496.445,595.999C496.445,595.945 496.451,595.893 496.464,595.842L496.475,595.842L496.475,595.802C496.503,595.712 496.55,595.629 496.611,595.559L496.617,595.559L496.617,595.553C496.738,595.418 496.914,595.332 497.109,595.332L1199.47,595.332C1199.58,595.332 1199.69,595.36 1199.78,595.409L1199.78,595.418L1199.8,595.418C1199.91,595.483 1200,595.582 1200.06,595.7L1200.06,595.701C1200.11,595.791 1200.13,595.892 1200.13,595.999L1200.13,1042.25C1200.13,1042.62 1199.84,1042.92 1199.47,1042.92L497.109,1042.92C496.98,1042.92 496.86,1042.88 496.758,1042.82Z" style="fill:url(#_Linear3);"/>
                </g>
                <g transform="matrix(1.79471,0,0,4.12532,-142.052,-1822.04)">
                    <path d="M575.189,615.22L1141.22,615.22C1143.17,615.22 1144.93,616.017 1146.22,617.299C1147.51,618.581 1148.3,620.352 1148.3,622.301C1148.3,624.251 1147.51,626.023 1146.22,627.306C1144.93,628.588 1143.17,629.385 1141.22,629.385L575.189,629.385C573.239,629.385 571.462,628.588 570.183,627.306C568.896,626.023 568.107,624.251 568.107,622.301C568.107,620.352 568.896,618.581 570.183,617.299C571.462,616.017 573.239,615.22 575.189,615.22ZM1141.22,617.149L575.189,617.149C573.771,617.149 572.483,617.729 571.545,618.663C570.615,619.597 570.033,620.886 570.033,622.301C570.033,623.717 570.615,625.007 571.545,625.941C572.483,626.876 573.771,627.456 575.189,627.456L1141.22,627.456C1142.62,627.456 1143.92,626.876 1144.86,625.941C1145.79,625.007 1146.37,623.717 1146.37,622.301C1146.37,620.886 1145.79,619.597 1144.86,618.663C1143.92,617.729 1142.62,617.149 1141.22,617.149Z" style="fill:rgb(123,169,227);fill-rule:nonzero;"/>
                </g>
                <g transform="matrix(1.79471,0,0,4.12532,-142.052,-1822.04)">
                    <rect x="544.367" y="614.722" width="14.29" height="15.167" style="fill:rgb(123,169,227);"/>
                </g>
                <g transform="matrix(1.79471,0,0,4.12532,-142.052,-1822.04)">
                    <rect x="519.271" y="614.722" width="14.292" height="15.167" style="fill:rgb(123,169,227);"/>
                </g>
                <g transform="matrix(1.79471,0,0,4.12532,-142.052,-1822.04)">
                    <path d="M1172.01,607.894C1180.8,607.894 1187.93,615.022 1187.93,623.814C1187.93,632.607 1180.8,639.734 1172.01,639.734C1163.21,639.734 1156.09,632.607 1156.09,623.814C1156.09,615.022 1163.21,607.894 1172.01,607.894Z" style="fill:rgb(123,169,227);"/>
                </g>
                <g transform="matrix(1.79471,0,0,4.12532,-142.052,-1822.04)">
                    <path d="M1166.36,616.041C1168.96,614.066 1172.66,614.57 1174.64,617.164C1176.41,619.491 1176.19,622.706 1174.26,624.769L1178.96,630.95C1179.29,631.388 1179.17,631.977 1178.76,632.352C1178.37,632.723 1177.7,632.597 1177.38,632.162L1172.66,625.979C1170.17,627.288 1167.01,626.64 1165.24,624.315C1163.26,621.719 1163.77,618.015 1166.36,616.041ZM1167.08,616.99C1169.16,615.417 1172.11,615.817 1173.68,617.888C1175.27,619.96 1174.87,622.913 1172.79,624.49C1170.72,626.064 1167.76,625.663 1166.19,623.59C1164.62,621.522 1165.01,618.565 1167.08,616.99Z" style="fill:rgb(123,169,227);"/>
                </g>
                <g transform="matrix(1.79471,0,0,4.12532,-142.052,-1822.04)">
                    <path d="M788.242,1068.32C785.129,1124.61 776.891,1138.84 719.811,1170.92L972.842,1170.92C915.768,1138.84 907.528,1124.61 904.414,1068.32L846.328,1063.75L788.242,1068.32Z" style="fill:rgb(103,155,204);"/>
                </g>
                <g transform="matrix(1.79471,0,0,4.12532,-142.052,-1822.04)">
                    <path d="M1231.58,1002.25L1231.58,1031.3C1231.58,1055.61 1211.69,1075.5 1187.38,1075.5L509.191,1075.5C484.877,1075.5 464.989,1055.61 464.989,1031.3L464.989,1002.25L1231.58,1002.25Z" style="fill:rgb(187,227,248);"/>
                </g>
                <g transform="matrix(1.79471,0,0,4.12532,-142.052,-1822.04)">
                    <path d="M873.864,1032.11C878.216,1032.11 881.735,1035.64 881.735,1039.99C881.735,1044.33 878.216,1047.86 873.864,1047.86C869.52,1047.86 865.992,1044.33 865.992,1039.99C865.992,1035.64 869.52,1032.11 873.864,1032.11Z" style="fill:rgb(83,165,219);"/>
                </g>
                <g transform="matrix(1.79471,0,0,4.12532,-142.052,-1822.04)">
                    <rect x="785.727" y="1075.5" width="120.231" height="16.01" style="fill:rgb(46,118,177);"/>
                </g>
                <g transform="matrix(1.79471,0,0,4.12532,-142.052,-1822.04)">
                    <path d="M802.533,954.642L843.97,954.642L843.97,836.608L802.533,836.608L802.533,954.642ZM875.841,954.642L917.283,954.642L917.283,834.982L875.841,834.982L875.841,954.642ZM949.148,954.642L990.587,954.642L990.587,834.86L949.148,834.86L949.148,954.642ZM1022.47,954.642L1063.89,954.642L1063.89,833.268L1022.47,833.268L1022.47,954.642ZM1102.91,954.642L1144.35,954.642L1144.35,833.757L1102.91,833.757L1102.91,954.642Z" style="fill:url(#_Linear4);"/>
                </g>
                <g transform="matrix(1.30908,0,0,3.00905,112.635,-1085.45)">
                    <path d="M580.015,659.871C610.698,659.871 635.576,684.75 635.576,715.438C635.576,746.124 610.698,771.004 580.015,771.004C549.323,771.004 524.446,746.124 524.446,715.438C524.446,684.75 549.323,659.871 580.015,659.871Z" style="fill:rgb(88,138,198);"/>
                </g>
                <g transform="matrix(1.30908,0,0,3.00905,112.635,-1085.45)">
                    <path d="M576.112,686.853L574.725,675.916L586.467,675.907L584.574,686.755C594.031,687.894 600.176,692.473 602.992,700.454L589.173,704.627C587.804,700.892 584.956,699.005 580.629,698.962C577.001,698.929 575.174,700.083 575.148,702.422C575.14,703.279 575.447,704.001 576.062,704.607C576.668,705.214 578.362,705.828 581.144,706.471C587.497,707.897 592.047,709.173 594.796,710.297C597.543,711.431 599.828,713.313 601.629,715.957C603.431,718.601 604.32,721.701 604.286,725.289C604.237,730.302 602.41,734.486 598.824,737.842C595.22,741.199 590.295,743.193 584.025,743.84L585.777,754.868L573.396,754.967L575.563,743.758C564.986,742.397 558.375,736.732 555.735,726.804L571.163,724.087C572.442,728.601 575.739,730.883 581.062,730.934C585.221,730.974 587.314,729.853 587.339,727.572C587.347,726.371 586.874,725.42 585.911,724.752C584.948,724.068 583.236,723.466 580.779,722.932C571.114,720.887 565.001,718.324 562.437,715.252C559.87,712.181 558.615,708.656 558.649,704.712C558.69,700.344 560.152,696.485 563.025,693.12C565.906,689.772 570.267,687.683 576.112,686.853Z" style="fill:rgb(227,238,249);"/>
                </g>
                <g transform="matrix(0.536439,0,0,0.536439,-1191.62,1317.42)">
                    <g transform="matrix(1.41942,0,0,3.26268,2209.22,-1667.38)">
                        <path d="M731.16,1339.14C678.098,1286.45 608.755,1270.13 608.058,1269.97L609.235,1264.82C609.944,1264.98 680.718,1281.59 734.888,1335.38L731.16,1339.14Z" style="fill:rgb(218,218,218);fill-rule:nonzero;"/>
                    </g>
                    <g transform="matrix(1.41942,0,0,3.26268,2209.22,-1667.38)">
                        <path d="M1638.74,1759.93L851.784,1759.93C824.552,1759.93 802.475,1737.85 802.475,1710.62L802.475,560.355C802.475,533.123 824.552,511.047 851.784,511.047L1638.74,511.047C1665.97,511.047 1688.05,533.123 1688.05,560.355L1688.05,1710.62C1688.05,1737.85 1665.97,1759.93 1638.74,1759.93Z" style="fill:rgb(83,165,219);fill-rule:nonzero;"/>
                    </g>
                    <g transform="matrix(1.41942,0,0,3.26268,2209.22,-1667.38)">
                        <rect x="1089.2" y="566" width="312.13" height="52.397" style="fill:rgb(49,85,165);fill-rule:nonzero;"/>
                    </g>
                    <g transform="matrix(1.41942,0,0,3.26268,2209.22,-1667.38)">
                        <rect x="890.813" y="698.267" width="708.897" height="157.218" style="fill:rgb(218,218,218);fill-rule:nonzero;"/>
                    </g>
                    <g transform="matrix(1.41942,0,0,3.26268,2209.22,-1667.38)">
                        <rect x="921.834" y="719.771" width="646.856" height="114.209" style="fill:white;fill-rule:nonzero;"/>
                    </g>
                    <g transform="matrix(1.41942,0,0,3.26268,2209.22,-1667.38)">
                        <path d="M1414.83,991.899L1366.66,991.899C1352.21,991.899 1340.49,980.18 1340.49,965.724L1340.49,954.586C1340.49,940.13 1352.21,928.411 1366.66,928.411L1414.83,928.411C1429.28,928.411 1441,940.13 1441,954.586L1441,965.724C1441,980.18 1429.28,991.899 1414.83,991.899Z" style="fill:rgb(31,60,136);fill-rule:nonzero;"/>
                    </g>
                    <g transform="matrix(1.41942,0,0,3.26268,2209.22,-1667.38)">
                        <path d="M1573.54,991.899L1525.37,991.899C1510.92,991.899 1499.2,980.18 1499.2,965.724L1499.2,954.586C1499.2,940.13 1510.92,928.411 1525.37,928.411L1573.54,928.411C1587.99,928.411 1599.71,940.13 1599.71,954.586L1599.71,965.724C1599.71,980.18 1587.99,991.899 1573.54,991.899Z" style="fill:rgb(31,60,136);fill-rule:nonzero;"/>
                    </g>
                    <g transform="matrix(1.41942,0,0,3.26268,2209.22,-1667.38)">
                        <path d="M1587.23,1151.5L1490.49,1151.5C1483.6,1151.5 1478.02,1145.92 1478.02,1139.04L1478.02,1081.08C1478.02,1074.19 1483.6,1068.61 1490.49,1068.61L1587.23,1068.61C1594.11,1068.61 1599.69,1074.19 1599.69,1081.08L1599.69,1139.04C1599.69,1145.92 1594.11,1151.5 1587.23,1151.5Z" style="fill:rgb(31,60,136);fill-rule:nonzero;"/>
                    </g>
                    <g transform="matrix(1.41942,0,0,3.26268,2209.22,-1667.38)">
                        <path d="M1393.11,1151.5L1296.37,1151.5C1289.49,1151.5 1283.9,1145.92 1283.9,1139.04L1283.9,1081.08C1283.9,1074.19 1289.49,1068.61 1296.37,1068.61L1393.11,1068.61C1399.99,1068.61 1405.57,1074.19 1405.57,1081.08L1405.57,1139.04C1405.57,1145.92 1399.99,1151.5 1393.11,1151.5Z" style="fill:rgb(31,60,136);fill-rule:nonzero;"/>
                    </g>
                    <g transform="matrix(1.41942,0,0,3.26268,2209.22,-1667.38)">
                        <path d="M1198.99,1151.5L1102.25,1151.5C1095.37,1151.5 1089.79,1145.92 1089.79,1139.04L1089.79,1081.08C1089.79,1074.19 1095.37,1068.61 1102.25,1068.61L1198.99,1068.61C1205.88,1068.61 1211.46,1074.19 1211.46,1081.08L1211.46,1139.04C1211.46,1145.92 1205.88,1151.5 1198.99,1151.5Z" style="fill:rgb(31,60,136);fill-rule:nonzero;"/>
                    </g>
                    <g transform="matrix(1.41942,0,0,3.26268,2209.22,-1667.38)">
                        <path d="M1004.87,1151.5L908.135,1151.5C901.251,1151.5 895.67,1145.92 895.67,1139.04L895.67,1081.08C895.67,1074.19 901.251,1068.61 908.135,1068.61L1004.87,1068.61C1011.76,1068.61 1017.34,1074.19 1017.34,1081.08L1017.34,1139.04C1017.34,1145.92 1011.76,1151.5 1004.87,1151.5Z" style="fill:rgb(31,60,136);fill-rule:nonzero;"/>
                    </g>
                    <g transform="matrix(1.41942,0,0,3.26268,2209.22,-1667.38)">
                        <path d="M1587.23,1301.4L1490.49,1301.4C1483.6,1301.4 1478.02,1295.82 1478.02,1288.94L1478.02,1230.98C1478.02,1224.1 1483.6,1218.52 1490.49,1218.52L1587.23,1218.52C1594.11,1218.52 1599.69,1224.1 1599.69,1230.98L1599.69,1288.94C1599.69,1295.82 1594.11,1301.4 1587.23,1301.4Z" style="fill:rgb(31,60,136);fill-rule:nonzero;"/>
                    </g>
                    <g transform="matrix(1.41942,0,0,3.26268,2209.22,-1667.38)">
                        <path d="M1393.11,1301.4L1296.37,1301.4C1289.49,1301.4 1283.9,1295.82 1283.9,1288.94L1283.9,1230.98C1283.9,1224.1 1289.49,1218.52 1296.37,1218.52L1393.11,1218.52C1399.99,1218.52 1405.57,1224.1 1405.57,1230.98L1405.57,1288.94C1405.57,1295.82 1399.99,1301.4 1393.11,1301.4Z" style="fill:rgb(211,223,255);fill-rule:nonzero;"/>
                    </g>
                    <g transform="matrix(1.41942,0,0,3.26268,2209.22,-1667.38)">
                        <path d="M1198.99,1301.4L1102.25,1301.4C1095.37,1301.4 1089.79,1295.82 1089.79,1288.94L1089.79,1230.98C1089.79,1224.1 1095.37,1218.52 1102.25,1218.52L1198.99,1218.52C1205.88,1218.52 1211.46,1224.1 1211.46,1230.98L1211.46,1288.94C1211.46,1295.82 1205.88,1301.4 1198.99,1301.4Z" style="fill:rgb(211,223,255);fill-rule:nonzero;"/>
                    </g>
                    <g transform="matrix(1.41942,0,0,3.26268,2209.22,-1667.38)">
                        <path d="M1004.87,1301.4L908.135,1301.4C901.251,1301.4 895.67,1295.82 895.67,1288.94L895.67,1230.98C895.67,1224.1 901.251,1218.52 908.135,1218.52L1004.87,1218.52C1011.76,1218.52 1017.34,1224.1 1017.34,1230.98L1017.34,1288.94C1017.34,1295.82 1011.76,1301.4 1004.87,1301.4Z" style="fill:rgb(211,223,255);fill-rule:nonzero;"/>
                    </g>
                    <g transform="matrix(1.41942,0,0,3.26268,2209.22,-1667.38)">
                        <path d="M1587.23,1451.31L1490.49,1451.31C1483.6,1451.31 1478.02,1445.72 1478.02,1438.84L1478.02,1380.88C1478.02,1374 1483.6,1368.42 1490.49,1368.42L1587.23,1368.42C1594.11,1368.42 1599.69,1374 1599.69,1380.88L1599.69,1438.84C1599.69,1445.72 1594.11,1451.31 1587.23,1451.31Z" style="fill:rgb(31,60,136);fill-rule:nonzero;"/>
                    </g>
                    <g transform="matrix(1.41942,0,0,3.26268,2209.22,-1667.38)">
                        <path d="M1393.11,1451.31L1296.37,1451.31C1289.49,1451.31 1283.9,1445.72 1283.9,1438.84L1283.9,1380.88C1283.9,1374 1289.49,1368.42 1296.37,1368.42L1393.11,1368.42C1399.99,1368.42 1405.57,1374 1405.57,1380.88L1405.57,1438.84C1405.57,1445.72 1399.99,1451.31 1393.11,1451.31Z" style="fill:rgb(211,223,255);fill-rule:nonzero;"/>
                    </g>
                    <g transform="matrix(1.41942,0,0,3.26268,2209.22,-1667.38)">
                        <path d="M1198.99,1451.31L1102.25,1451.31C1095.37,1451.31 1089.79,1445.72 1089.79,1438.84L1089.79,1380.88C1089.79,1374 1095.37,1368.42 1102.25,1368.42L1198.99,1368.42C1205.88,1368.42 1211.46,1374 1211.46,1380.88L1211.46,1438.84C1211.46,1445.72 1205.88,1451.31 1198.99,1451.31Z" style="fill:rgb(211,223,255);fill-rule:nonzero;"/>
                    </g>
                    <g transform="matrix(1.41942,0,0,3.26268,2209.22,-1667.38)">
                        <path d="M1004.87,1451.31L908.135,1451.31C901.251,1451.31 895.67,1445.72 895.67,1438.84L895.67,1380.88C895.67,1374 901.251,1368.42 908.135,1368.42L1004.87,1368.42C1011.76,1368.42 1017.34,1374 1017.34,1380.88L1017.34,1438.84C1017.34,1445.72 1011.76,1451.31 1004.87,1451.31Z" style="fill:rgb(211,223,255);fill-rule:nonzero;"/>
                    </g>
                    <g transform="matrix(1.41942,0,0,3.26268,2209.22,-1667.38)">
                        <path d="M1587.23,1606.5L1490.49,1606.5C1483.6,1606.5 1478.02,1600.92 1478.02,1594.03L1478.02,1536.08C1478.02,1529.19 1483.6,1523.61 1490.49,1523.61L1587.23,1523.61C1594.11,1523.61 1599.69,1529.19 1599.69,1536.08L1599.69,1594.03C1599.69,1600.92 1594.11,1606.5 1587.23,1606.5Z" style="fill:rgb(251,195,67);fill-rule:nonzero;"/>
                    </g>
                    <g transform="matrix(1.41942,0,0,3.26268,2209.22,-1667.38)">
                        <path d="M1393.11,1606.5L1296.37,1606.5C1289.49,1606.5 1283.9,1600.92 1283.9,1594.03L1283.9,1536.08C1283.9,1529.19 1289.49,1523.61 1296.37,1523.61L1393.11,1523.61C1399.99,1523.61 1405.57,1529.19 1405.57,1536.08L1405.57,1594.03C1405.57,1600.92 1399.99,1606.5 1393.11,1606.5Z" style="fill:rgb(211,223,255);fill-rule:nonzero;"/>
                    </g>
                    <g transform="matrix(1.41942,0,0,3.26268,2209.22,-1667.38)">
                        <path d="M1198.99,1606.5L1102.25,1606.5C1095.37,1606.5 1089.79,1600.92 1089.79,1594.03L1089.79,1536.08C1089.79,1529.19 1095.37,1523.61 1102.25,1523.61L1198.99,1523.61C1205.88,1523.61 1211.46,1529.19 1211.46,1536.08L1211.46,1594.03C1211.46,1600.92 1205.88,1606.5 1198.99,1606.5Z" style="fill:rgb(211,223,255);fill-rule:nonzero;"/>
                    </g>
                    <g transform="matrix(1.41942,0,0,3.26268,2209.22,-1667.38)">
                        <path d="M1004.87,1606.5L908.135,1606.5C901.251,1606.5 895.67,1600.92 895.67,1594.03L895.67,1536.08C895.67,1529.19 901.251,1523.61 908.135,1523.61L1004.87,1523.61C1011.76,1523.61 1017.34,1529.19 1017.34,1536.08L1017.34,1594.03C1017.34,1600.92 1011.76,1606.5 1004.87,1606.5Z" style="fill:rgb(211,223,255);fill-rule:nonzero;"/>
                    </g>
                    <g transform="matrix(1.41942,0,0,3.26268,2209.22,-1667.38)">
                        <path d="M2161.61,1536.57C2161.61,1577.36 2155.48,1618.37 2142.99,1658.21C2124,1718.73 2067.98,1759.89 2004.6,1759.89L1920.75,1759.89L1920.75,1408.17L2140.82,1408.17C2154.58,1449.54 2161.61,1492.93 2161.61,1536.57Z" style="fill:rgb(228,155,49);fill-rule:nonzero;"/>
                    </g>
                    <g transform="matrix(1.41942,0,0,3.26268,2209.22,-1667.38)">
                        <path d="M1719.72,1700.78L1719.72,1738.55C1719.72,1751.83 1708.98,1762.57 1695.7,1762.57L1297.39,1762.57C1284.11,1762.57 1273.38,1751.83 1273.38,1738.55L1273.38,1700.78C1273.38,1687.5 1284.11,1676.76 1297.39,1676.76L1695.7,1676.76C1708.98,1676.76 1719.72,1687.5 1719.72,1700.78Z" style="fill:rgb(251,195,67);fill-rule:nonzero;"/>
                    </g>
                    <g transform="matrix(1.41942,0,0,3.26268,2209.22,-1667.38)">
                        <path d="M1670.36,1614.91L1670.36,1652.74C1670.36,1666.02 1659.57,1676.76 1646.34,1676.76L1248.04,1676.76C1234.76,1676.76 1224.02,1666.02 1224.02,1652.74L1224.02,1614.91C1224.02,1601.68 1234.76,1590.89 1248.04,1590.89L1646.34,1590.89C1659.57,1590.89 1670.36,1601.68 1670.36,1614.91Z" style="fill:rgb(251,195,67);fill-rule:nonzero;"/>
                    </g>
                    <g transform="matrix(1.41942,0,0,3.26268,2209.22,-1667.38)">
                        <path d="M1719.72,1700.78L1719.72,1738.55C1719.72,1751.83 1708.98,1762.57 1695.7,1762.57L1410.08,1762.57C1390.34,1738.24 1378.28,1706.86 1371.03,1676.76C1362.68,1642.26 1360.51,1609.51 1360.03,1590.89L1646.34,1590.89C1659.57,1590.89 1670.36,1601.68 1670.36,1614.91L1670.36,1652.74C1670.36,1666.02 1659.57,1676.76 1646.34,1676.76L1695.7,1676.76C1708.98,1676.76 1719.72,1687.5 1719.72,1700.78Z" style="fill:rgb(228,155,49);fill-rule:nonzero;"/>
                    </g>
                    <g transform="matrix(1.41942,0,0,3.26268,2209.22,-1667.38)">
                        <path d="M1929.05,997.013L1896.89,1095.79L1894.51,1103.09L1879.59,1148.96L1879.48,1149.28L1831.39,1148.22L1646.87,1144.04L1633.38,1105.42L1631.1,1098.96L1595.4,997.013C1706.17,1035.37 1797.48,951.514 1929.05,997.013Z" style="fill:rgb(251,195,67);fill-rule:nonzero;"/>
                    </g>
                    <g transform="matrix(1.41942,0,0,3.26268,2209.22,-1667.38)">
                        <path d="M1894.51,1103.09L1879.59,1148.96L1831.39,1148.22L1646.87,1144.04L1633.38,1105.42C1696.81,1104.31 1805.95,1102.83 1894.51,1103.09Z" style="fill:rgb(228,155,49);fill-rule:nonzero;"/>
                    </g>
                    <g transform="matrix(1.41942,0,0,3.26268,2209.22,-1667.38)">
                        <path d="M2100.67,1660.89C2091.2,1691.15 2072.42,1716.54 2048.14,1734.43C2023.8,1752.31 1993.97,1762.57 1962.28,1762.57L1544.34,1762.57C1483.93,1762.57 1430.92,1722.21 1414.84,1663.9C1405.58,1630.2 1400.61,1596.02 1399.81,1562C1399.76,1558.72 1399.71,1555.44 1399.71,1552.16C1399.71,1548.29 1399.76,1544.41 1399.87,1540.54C1403.28,1417.25 1463.52,1302.41 1560.22,1225.85L1660.2,1146.69L1889.01,1151.98L2014.78,1272.33C2032.47,1289.26 2048.23,1308.18 2060.88,1329.15C2076.03,1354.28 2088.3,1380.81 2097.6,1408.2C2125.06,1488.94 2126.86,1577.4 2100.67,1660.89Z" style="fill:rgb(251,195,67);fill-rule:nonzero;"/>
                    </g>
                    <g transform="matrix(1.41942,0,0,3.26268,2209.22,-1667.38)">
                        <path d="M1728.52,1652.05L1728.52,1607.84C1697.31,1606.44 1667.05,1598.05 1649.35,1587.82L1663.34,1533.33C1682.9,1544.02 1710.36,1553.8 1740.65,1553.8C1767.19,1553.8 1785.36,1543.56 1785.36,1524.94C1785.36,1507.24 1770.46,1496.05 1735.99,1484.41C1686.16,1467.65 1652.15,1444.36 1652.15,1399.2C1652.15,1358.21 1681.05,1326.09 1730.87,1316.31L1730.87,1272.05L1776.48,1272.05L1776.48,1313.05C1807.69,1314.45 1828.66,1320.97 1844.02,1328.4L1830.52,1381.04C1818.42,1375.92 1797,1365.19 1763.44,1365.19C1733.18,1365.19 1723.4,1378.23 1723.4,1391.28C1723.4,1406.63 1739.7,1416.42 1779.29,1431.32C1834.69,1450.89 1857.06,1476.48 1857.06,1518.42C1857.06,1559.87 1827.71,1595.25 1774.17,1604.58L1774.17,1652.05L1728.52,1652.05Z" style="fill:white;fill-rule:nonzero;"/>
                    </g>
                    <g transform="matrix(1.41942,0,0,3.26268,2209.22,-1667.38)">
                        <path d="M1926.87,1189.4L1603.21,1189.4C1589.82,1189.4 1578.87,1178.45 1578.87,1165.06L1578.87,1154.7C1578.87,1141.31 1589.82,1130.36 1603.21,1130.36L1926.87,1130.36C1940.25,1130.36 1951.21,1141.31 1951.21,1154.7L1951.21,1165.06C1951.21,1178.45 1940.25,1189.4 1926.87,1189.4Z" style="fill:rgb(237,117,69);fill-rule:nonzero;"/>
                    </g>
                    <g transform="matrix(1.41942,0,0,3.26268,2209.22,-1667.38)">
                        <path d="M1962.28,1762.57L1544.34,1762.57C1483.93,1762.57 1430.92,1722.21 1414.84,1663.9C1405.58,1630.2 1400.61,1596.02 1399.81,1562C1468.96,1627.93 1550.43,1714.11 1740.88,1716.76C1744.28,1716.8 1747.67,1716.83 1751.02,1716.83C1980.3,1716.83 2079.56,1606.3 2097.6,1408.2C2111.97,1450.46 2119.32,1494.84 2119.29,1539.51C2119.27,1580.18 2113.15,1621.1 2100.67,1660.89C2091.2,1691.15 2072.42,1716.54 2048.14,1734.43C2031.08,1746.96 2011.31,1755.76 1990.1,1759.89C1981.06,1761.66 1971.75,1762.57 1962.28,1762.57Z" style="fill:rgb(242,179,60);fill-rule:nonzero;"/>
                    </g>
                    <g transform="matrix(1.41942,0,0,3.26268,2209.22,-1667.38)">
                        <path d="M477.384,1689.39L435.062,1673.51L336.751,1759.93L453.094,1759.93L477.384,1689.39Z" style="fill:rgb(16,32,72);fill-rule:nonzero;"/>
                    </g>
                    <g transform="matrix(1.41942,0,0,3.26268,2209.22,-1667.38)">
                        <path d="M477.384,1689.39L570.846,1689.39L560.265,1756.4L453.094,1759.93L477.384,1689.39Z" style="fill:rgb(249,179,132);fill-rule:nonzero;"/>
                    </g>
                    <g transform="matrix(1.41942,0,0,3.26268,2209.22,-1667.38)">
                        <path d="M852.534,1313.73L849.095,1337.17L847.031,1351.29L832.219,1452.82L826.558,1491.6L821.532,1526.2L808.359,1616.36L799.208,1678.89C792.33,1725.93 752.018,1760.79 704.458,1760.79L497.661,1760.79L497.925,1758.15L504.644,1689.37L505.597,1679.69L649.757,1651.91L669.119,1511.28C659.597,1470.39 661.924,1431.02 666.051,1403.41C669.542,1379.86 674.409,1364.89 674.409,1364.89L738.739,1346.43L852.534,1313.73Z" style="fill:rgb(31,60,136);fill-rule:nonzero;"/>
                    </g>
                    <g transform="matrix(1.41942,0,0,3.26268,2209.22,-1667.38)">
                        <path d="M808.359,1616.36L799.208,1678.89C792.33,1725.93 752.018,1760.79 704.458,1760.79L693.878,1760.79C788.627,1743.84 770.111,1622.81 808.359,1616.36Z" style="fill:rgb(16,32,72);fill-rule:nonzero;"/>
                    </g>
                    <g transform="matrix(1.41942,0,0,3.26268,2209.22,-1667.38)">
                        <path d="M408.213,1761.33L403.718,1758.53L423.998,1725.91L428.493,1728.7L408.213,1761.33Z" style="fill:white;fill-rule:nonzero;"/>
                    </g>
                    <g transform="matrix(1.41942,0,0,3.26268,2209.22,-1667.38)">
                        <path d="M832.219,1452.82L821.532,1526.2C791.748,1517.69 752.477,1475.11 752.477,1475.11L832.219,1452.82Z" style="fill:rgb(16,32,72);fill-rule:nonzero;"/>
                    </g>
                    <g transform="matrix(1.41942,0,0,3.26268,2209.22,-1667.38)">
                        <path d="M1051.33,1640.01C1051.33,1640.01 1001.08,1665.8 911.142,1649.26L985.867,1599.67L1051.33,1640.01Z" style="fill:rgb(16,32,72);fill-rule:nonzero;"/>
                    </g>
                    <g transform="matrix(1.41942,0,0,3.26268,2209.22,-1667.38)">
                        <path d="M1023.67,1675.56L943.314,1677.36L942.839,1660L941.569,1612.44L1012.99,1617.73L1016.37,1636.09L1023.67,1675.56Z" style="fill:rgb(249,179,132);fill-rule:nonzero;"/>
                    </g>
                    <g transform="matrix(1.41942,0,0,3.26268,2209.22,-1667.38)">
                        <path d="M1016.37,1636.09L942.839,1660L941.569,1612.44L1012.99,1617.73L1016.37,1636.09Z" style="fill:rgb(226,139,109);fill-rule:nonzero;"/>
                    </g>
                    <g transform="matrix(1.41942,0,0,3.26268,2209.22,-1667.38)">
                        <path d="M1114.82,1760.59L1026.21,1689.17L1023.69,1675.58L943.3,1677.36L945.529,1760.59L1114.82,1760.59Z" style="fill:rgb(16,32,72);fill-rule:nonzero;"/>
                    </g>
                    <g transform="matrix(1.41942,0,0,3.26268,2209.22,-1667.38)">
                        <path d="M1025.45,1733.51L1022.64,1729.02L1054.38,1709.19L1057.19,1713.68L1025.45,1733.51Z" style="fill:white;fill-rule:nonzero;"/>
                    </g>
                    <g transform="matrix(1.41942,0,0,3.26268,2209.22,-1667.38)">
                        <path d="M674.402,1364.89L961.955,1319.22C975.404,1317.09 989.183,1318.9 1001.63,1324.43C1026.36,1335.42 1042.61,1359.6 1043.44,1386.65L1051.33,1640.01C1051.33,1640.01 969.335,1622.81 911.142,1649.26L905.852,1476C870.694,1492 809.788,1495.39 748.068,1489.22L674.402,1364.89Z" style="fill:rgb(31,60,136);fill-rule:nonzero;"/>
                    </g>
                    <g transform="matrix(1.41942,0,0,3.26268,2209.22,-1667.38)">
                        <path d="M1010.82,1632.07L1005.53,1632.07C1005.53,1588.23 1006.59,1551.84 1007.52,1519.73C1009.79,1441.55 1011.04,1398.48 991.125,1380.25C975.008,1365.5 942.8,1365.96 896.064,1371.49C845.982,1377.33 826.011,1324 825.816,1323.47L830.79,1321.66C831.534,1323.71 849.525,1371.76 895.444,1366.23C944.908,1360.39 977.012,1360.16 994.697,1376.35C1016.4,1396.21 1015.2,1437.54 1012.81,1519.89C1011.88,1551.96 1010.82,1588.3 1010.82,1632.07Z" style="fill:rgb(58,107,234);fill-rule:nonzero;"/>
                    </g>
                    <g transform="matrix(1.41942,0,0,3.26268,2209.22,-1667.38)">
                        <path d="M911.242,1617.35L909.364,1612.4C910.034,1612.15 977.111,1587.19 1051.14,1605.69L1049.85,1610.83C977.506,1592.72 911.898,1617.1 911.242,1617.35Z" style="fill:rgb(58,107,234);fill-rule:nonzero;"/>
                    </g>
                    <g transform="matrix(1.41942,0,0,3.26268,2209.22,-1667.38)">
                        <path d="M527.036,1761.55C518.797,1745.07 531.548,1676.8 532.095,1673.9L537.292,1674.89C533.66,1694.14 525.586,1746.82 531.768,1759.19L527.036,1761.55Z" style="fill:rgb(58,107,234);fill-rule:nonzero;"/>
                    </g>
                    <g transform="matrix(1.41942,0,0,3.26268,2209.22,-1667.38)">
                        <path d="M823.913,1343.73C823.913,1343.73 803.598,1386.95 757.784,1416.05C742.231,1425.89 726.942,1430.39 713.24,1430.44C692.555,1430.5 675.362,1420.44 666.051,1403.41C669.542,1379.86 674.409,1364.89 674.409,1364.89L738.739,1346.43L803.651,1344.36L823.913,1343.73Z" style="fill:rgb(16,32,72);fill-rule:nonzero;"/>
                    </g>
                    <g transform="matrix(1.41942,0,0,3.26268,2209.22,-1667.38)">
                        <path d="M772.272,1083.22L772.272,1144.45L832.229,1144.45L832.229,1091.49L772.272,1083.22Z" style="fill:rgb(237,117,69);fill-rule:nonzero;"/>
                    </g>
                    <g transform="matrix(1.41942,0,0,3.26268,2209.22,-1667.38)">
                        <path d="M832.229,1053.62L772.272,1053.62L772.272,1083.22L832.229,1091.49L832.229,1053.62Z" style="fill:rgb(249,179,132);fill-rule:nonzero;"/>
                    </g>
                    <g transform="matrix(1.41942,0,0,3.26268,2209.22,-1667.38)">
                        <path d="M789.949,1062C791.272,1062 804.412,1082.62 832.229,1091.49L831.831,1059.36L789.949,1062Z" style="fill:rgb(16,32,72);fill-rule:nonzero;"/>
                    </g>
                    <g transform="matrix(1.41942,0,0,3.26268,2209.22,-1667.38)">
                        <path d="M839.282,980.436C839.282,980.436 872.346,1069.5 829.583,1075.23C786.82,1080.96 780.208,1061.56 780.208,1061.56L766.982,1014.38L796.519,974.704L839.282,980.436Z" style="fill:rgb(249,179,132);fill-rule:nonzero;"/>
                    </g>
                    <g transform="matrix(1.41942,0,0,3.26268,2209.22,-1667.38)">
                        <path d="M859.562,1023.2C859.562,1028.32 855.417,1032.46 850.304,1032.46C845.19,1032.46 841.046,1028.32 841.046,1023.2C841.046,1018.09 845.19,1013.94 850.304,1013.94C855.417,1013.94 859.562,1018.09 859.562,1023.2Z" style="fill:rgb(249,179,132);fill-rule:nonzero;"/>
                    </g>
                    <g transform="matrix(1.41942,0,0,3.26268,2209.22,-1667.38)">
                        <path d="M794.315,1022.76C794.315,1022.76 796.519,975.146 839.282,980.436C839.282,980.436 810.503,943.472 772.583,957.806C753.325,965.085 740.442,983.474 738.557,1003.98C736.121,1030.47 751.595,1060.68 773.197,1065.97C773.197,1065.97 780.25,1049.66 792.11,1028.93L794.315,1022.76Z" style="fill:rgb(16,32,72);fill-rule:nonzero;"/>
                    </g>
                    <g transform="matrix(1.41942,0,0,3.26268,2209.22,-1667.38)">
                        <path d="M804.541,1020.53C808.115,1028.14 805.744,1036.78 799.244,1039.83C792.744,1042.89 784.577,1039.21 781.003,1031.6C777.428,1024 779.8,1015.36 786.3,1012.3C792.8,1009.25 800.966,1012.93 804.541,1020.53Z" style="fill:rgb(249,179,132);fill-rule:nonzero;"/>
                    </g>
                    <g transform="matrix(1.41942,0,0,3.26268,2209.22,-1667.38)">
                        <path d="M824.777,1040.62C818.082,1040.62 812.653,1035.19 812.653,1028.49C812.653,1021.8 818.082,1016.37 824.777,1016.37C831.472,1016.37 836.901,1021.8 836.901,1028.49C836.901,1035.19 831.472,1040.62 824.777,1040.62Z" style="fill:rgb(243,145,118);fill-rule:nonzero;"/>
                    </g>
                    <g transform="matrix(1.41942,0,0,3.26268,2209.22,-1667.38)">
                        <path d="M795.459,1031.14C794.732,1031.14 794.142,1030.54 794.137,1029.82C794.135,1029.51 793.983,1022.13 785.8,1020.99C785.075,1020.88 784.571,1020.21 784.672,1019.49C784.772,1018.77 785.447,1018.3 786.165,1018.36C796.66,1019.83 796.78,1029.72 796.78,1029.81C796.78,1030.54 796.193,1031.13 795.463,1031.14L795.459,1031.14Z" style="fill:rgb(16,32,72);fill-rule:nonzero;"/>
                    </g>
                    <g transform="matrix(1.41942,0,0,3.26268,2209.22,-1667.38)">
                        <path d="M995.787,995.867C995.787,995.867 1042.03,999.394 1067.21,1028.93L1009.94,1043.04L995.787,995.867Z" style="fill:rgb(186,92,54);fill-rule:nonzero;"/>
                    </g>
                    <g transform="matrix(1.41942,0,0,3.26268,2209.22,-1667.38)">
                        <path d="M1077.74,970.524C1077.95,974.757 1066.31,995.867 1057.74,1010.84C1052.72,1019.46 1048.8,1026.02 1048.8,1026.02L1017.96,1035.02L995.953,1001.85L994.895,1000.21C994.895,1000.21 995.212,998.777 995.794,996.237L995.794,996.185C995.847,996.131 995.847,996.026 995.9,995.867C999.604,980.154 1012.72,926.612 1020.29,924.813C1026.95,923.279 1023.04,952.589 1023.04,952.589C1023.04,952.589 1039.49,904.92 1049.23,906.878C1057,908.412 1041.77,954.124 1041.77,954.124C1041.77,954.124 1047.22,948.41 1052.72,950.208C1058.59,952.166 1059.33,957.668 1059.33,957.668C1059.33,957.668 1063.25,954.917 1067.16,957.245C1071.08,959.626 1070.7,967.033 1070.7,967.033C1070.7,967.033 1077.32,963.911 1077.74,970.524Z" style="fill:rgb(249,179,132);fill-rule:nonzero;"/>
                    </g>
                    <g transform="matrix(1.41942,0,0,3.26268,2209.22,-1667.38)">
                        <path d="M758.261,1122.95L737.311,1204.85L704.829,1331.83C682.768,1341.61 659.491,1345.21 641.028,1342.14C619.602,1338.6 604.63,1326.11 605.636,1304.05C608.281,1244.53 758.261,1122.95 758.261,1122.95Z" style="fill:rgb(237,117,69);fill-rule:nonzero;"/>
                    </g>
                    <g transform="matrix(1.41942,0,0,3.26268,2209.22,-1667.38)">
                        <path d="M754.24,1146.21L737.311,1204.85L704.829,1331.83C682.768,1341.61 659.491,1345.21 641.028,1342.14C688.111,1207.05 754.24,1146.21 754.24,1146.21Z" style="fill:rgb(186,92,54);fill-rule:nonzero;"/>
                    </g>
                    <g transform="matrix(1.41942,0,0,3.26268,2209.22,-1667.38)">
                        <path d="M885.174,1331.51C841.53,1334.47 703.982,1448.22 670.918,1374.84C670.918,1374.84 675.521,1101.1 816.824,1106.18C841.847,1107.08 863.802,1123.74 871.367,1147.6C874.753,1158.4 878.138,1172.47 880.783,1190.56C883.481,1208.92 885.492,1231.46 886.18,1258.92C886.761,1280.08 886.497,1304.15 885.174,1331.51Z" style="fill:rgb(237,117,69);fill-rule:nonzero;"/>
                    </g>
                    <g transform="matrix(1.41942,0,0,3.26268,2209.22,-1667.38)">
                        <path d="M886.18,1258.92C864.331,1244.79 841.53,1202.2 841.53,1202.2L880.783,1190.56C883.481,1208.92 885.492,1231.46 886.18,1258.92Z" style="fill:rgb(186,92,54);fill-rule:nonzero;"/>
                    </g>
                    <g transform="matrix(1.41942,0,0,3.26268,2209.22,-1667.38)">
                        <path d="M1057.74,1010.84C1052.72,1019.46 1048.8,1026.02 1048.8,1026.02L1017.96,1035.02L995.953,1001.85L995.794,996.237L995.794,995.867L995.9,995.867L1057.74,1010.84Z" style="fill:rgb(226,139,109);fill-rule:nonzero;"/>
                    </g>
                    <g transform="matrix(1.41942,0,0,3.26268,2209.22,-1667.38)">
                        <path d="M816.834,1106.18C816.834,1106.18 884.69,1110.94 925.69,1118.88L995.787,995.867C1017.2,1013 1040.99,1024.05 1067.21,1028.93L1005.86,1173.49C992.327,1200.94 964.795,1218.73 934.208,1219.77L829.143,1223.37L816.834,1106.18Z" style="fill:rgb(237,117,69);fill-rule:nonzero;"/>
                    </g>
                    <g transform="matrix(1.41942,0,0,3.26268,2209.22,-1667.38)">
                        <path d="M925.692,1120.86C925.572,1120.86 925.451,1120.85 925.328,1120.83C924.037,1120.59 795.904,1097.09 774.071,1116.39C773.247,1117.11 771.996,1117.04 771.269,1116.22C770.544,1115.4 770.623,1114.14 771.442,1113.42C794.713,1092.85 920.702,1115.93 926.053,1116.92C927.13,1117.12 927.841,1118.16 927.642,1119.24C927.464,1120.19 926.63,1120.86 925.692,1120.86Z" style="fill:rgb(186,92,54);fill-rule:nonzero;"/>
                    </g>
                </g>
                <g transform="matrix(1,0,0,1,13.1749,-30.2837)">
                    <g transform="matrix(1.21435,0,0,2.79129,-11487.3,-12404.7)">
                        <rect x="10333" y="4826.45" width="633.035" height="59.902" style="fill:rgb(75,131,194);"/>
                    </g>
                    <g transform="matrix(7.43573e-17,2.79129,-1.21435,1.70917e-16,7708.25,-29477.1)">
                        <path d="M10972.7,4766.55L11047.4,4916.05L10898,4916.05L10972.7,4766.55Z" style="fill:rgb(75,131,194);"/>
                    </g>
                </g>
                <g transform="matrix(1.48842,0,0,3.42127,-14281.2,-13672)">
                    <text x="10156px" y="4534.91px" style="font-family:'Arial-BoldMT', 'Arial', sans-serif;font-weight:700;font-size:50px;fill:rgb(75,131,194);">1.000.000</text>
                </g>
                <g transform="matrix(1.21435,0,0,2.79129,-12811.6,-10402.6)">
                    <g transform="matrix(1.47792,0,0,1.47792,10176.3,3238.7)">
                        <rect x="1226.83" y="1131.74" width="143.19" height="18.37" style="fill:rgb(249,165,26);"/>
                    </g>
                    <g transform="matrix(1.47792,0,0,1.47792,10176.3,3238.7)">
                        <rect x="1351.89" y="1131.74" width="18.14" height="18.37" style="fill:rgb(249,165,26);"/>
                    </g>
                    <g transform="matrix(1.47792,0,0,1.47792,10176.3,3238.7)">
                        <rect x="1333.52" y="1131.74" width="18.36" height="18.37" style="fill:rgb(255,209,19);"/>
                    </g>
                    <g transform="matrix(1.47792,0,0,1.47792,10176.3,3238.7)">
                        <rect x="1267.51" y="1131.74" width="66.01" height="18.37" style="fill:rgb(249,167,25);"/>
                    </g>
                    <g transform="matrix(1.47792,0,0,1.47792,10176.3,3238.7)">
                        <rect x="1239.75" y="1131.74" width="27.76" height="18.37" style="fill:rgb(235,131,35);"/>
                    </g>
                    <g transform="matrix(1.47792,0,0,1.47792,10176.3,3238.7)">
                        <rect x="1233.61" y="1150.1" width="129.42" height="1.76" style="fill:rgb(222,100,38);"/>
                    </g>
                    <g transform="matrix(1.47792,0,0,1.47792,10176.3,3238.7)">
                        <rect x="1244.46" y="1151.86" width="143.2" height="18.36" style="fill:rgb(249,165,26);"/>
                    </g>
                    <g transform="matrix(1.47792,0,0,1.47792,10176.3,3238.7)">
                        <rect x="1369.5" y="1151.86" width="18.16" height="18.36" style="fill:rgb(249,165,26);"/>
                    </g>
                    <g transform="matrix(1.47792,0,0,1.47792,10176.3,3238.7)">
                        <rect x="1351.15" y="1151.86" width="18.36" height="18.36" style="fill:rgb(255,209,19);"/>
                    </g>
                    <g transform="matrix(1.47792,0,0,1.47792,10176.3,3238.7)">
                        <rect x="1285.12" y="1151.86" width="66.02" height="18.36" style="fill:rgb(249,167,25);"/>
                    </g>
                    <g transform="matrix(1.47792,0,0,1.47792,10176.3,3238.7)">
                        <rect x="1257.37" y="1151.86" width="27.76" height="18.36" style="fill:rgb(235,131,35);"/>
                    </g>
                    <g transform="matrix(1.47792,0,0,1.47792,10176.3,3238.7)">
                        <rect x="1251.25" y="1170.22" width="129.41" height="1.75" style="fill:rgb(222,100,38);"/>
                    </g>
                    <g transform="matrix(1.47792,0,0,1.47792,10176.3,3238.7)">
                        <rect x="1226.83" y="1091.51" width="143.19" height="18.37" style="fill:rgb(249,165,26);"/>
                    </g>
                    <g transform="matrix(1.47792,0,0,1.47792,10176.3,3238.7)">
                        <rect x="1351.89" y="1091.51" width="18.14" height="18.37" style="fill:rgb(249,165,26);"/>
                    </g>
                    <g transform="matrix(1.47792,0,0,1.47792,10176.3,3238.7)">
                        <rect x="1333.52" y="1091.51" width="18.36" height="18.37" style="fill:rgb(255,209,19);"/>
                    </g>
                    <g transform="matrix(1.47792,0,0,1.47792,10176.3,3238.7)">
                        <rect x="1267.51" y="1091.51" width="66.01" height="18.37" style="fill:rgb(249,167,25);"/>
                    </g>
                    <g transform="matrix(1.47792,0,0,1.47792,10176.3,3238.7)">
                        <rect x="1239.75" y="1091.51" width="27.76" height="18.37" style="fill:rgb(235,131,35);"/>
                    </g>
                    <g transform="matrix(1.47792,0,0,1.47792,10176.3,3238.7)">
                        <rect x="1233.61" y="1109.88" width="129.42" height="1.74" style="fill:rgb(222,100,38);"/>
                    </g>
                    <g transform="matrix(1.47792,0,0,1.47792,10176.3,3238.7)">
                        <rect x="1244.46" y="1111.62" width="143.2" height="18.37" style="fill:rgb(249,165,26);"/>
                    </g>
                    <g transform="matrix(1.47792,0,0,1.47792,10176.3,3238.7)">
                        <rect x="1369.5" y="1111.62" width="18.16" height="18.37" style="fill:rgb(249,165,26);"/>
                    </g>
                    <g transform="matrix(1.47792,0,0,1.47792,10176.3,3238.7)">
                        <rect x="1351.15" y="1111.62" width="18.36" height="18.37" style="fill:rgb(255,209,19);"/>
                    </g>
                    <g transform="matrix(1.47792,0,0,1.47792,10176.3,3238.7)">
                        <rect x="1285.12" y="1111.62" width="66.02" height="18.37" style="fill:rgb(249,167,25);"/>
                    </g>
                    <g transform="matrix(1.47792,0,0,1.47792,10176.3,3238.7)">
                        <rect x="1257.37" y="1111.62" width="27.76" height="18.37" style="fill:rgb(235,131,35);"/>
                    </g>
                    <g transform="matrix(1.47792,0,0,1.47792,10176.3,3238.7)">
                        <rect x="1251.25" y="1129.99" width="129.41" height="1.75" style="fill:rgb(222,100,38);"/>
                    </g>
                    <g transform="matrix(1.47792,0,0,1.47792,10176.3,3238.7)">
                        <path d="M1146.2,1115.68C1139.82,1077.79 1165.35,1041.88 1203.25,1035.5C1241.16,1029.1 1277.05,1054.64 1283.45,1092.54C1289.84,1130.44 1264.29,1166.35 1226.39,1172.73C1188.49,1179.13 1152.61,1153.58 1146.2,1115.68Z" style="fill:rgb(228,136,38);fill-rule:nonzero;"/>
                    </g>
                    <g transform="matrix(1.47792,0,0,1.47792,10176.3,3238.7)">
                        <path d="M1141.32,1111.5C1134.93,1073.6 1160.47,1037.7 1198.36,1031.31C1236.26,1024.92 1272.17,1050.47 1278.57,1088.36C1284.95,1126.26 1259.42,1162.16 1221.52,1168.56C1183.62,1174.94 1147.71,1149.4 1141.32,1111.5Z" style="fill:rgb(255,239,149);fill-rule:nonzero;"/>
                    </g>
                    <g transform="matrix(1.47792,0,0,1.47792,10176.3,3238.7)">
                        <path d="M1143.88,1113.43C1137.49,1075.54 1163.04,1039.63 1200.94,1033.24C1238.84,1026.85 1274.73,1052.39 1281.13,1090.29C1287.52,1128.19 1261.97,1164.1 1224.07,1170.48C1186.17,1176.88 1150.27,1151.33 1143.88,1113.43Z" style="fill:rgb(249,202,17);fill-rule:nonzero;"/>
                    </g>
                    <g transform="matrix(1.47792,0,0,1.47792,10176.3,3238.7)">
                        <path d="M1143.88,1113.43C1143.85,1113.24 1143.83,1113.04 1143.78,1112.84L1281.02,1089.7C1281.06,1089.9 1281.09,1090.09 1281.13,1090.29C1287.52,1128.19 1261.97,1164.1 1224.07,1170.48C1186.17,1176.88 1150.27,1151.33 1143.88,1113.43Z" style="fill:rgb(255,216,13);fill-rule:nonzero;"/>
                    </g>
                    <g transform="matrix(1.47792,0,0,1.47792,10176.3,3238.7)">
                        <path d="M1154.26,1111.68C1148.85,1079.52 1170.52,1049.05 1202.68,1043.62C1234.85,1038.2 1265.31,1059.88 1270.73,1092.04C1276.17,1124.2 1254.49,1154.68 1222.31,1160.1C1190.17,1165.53 1159.69,1143.85 1154.26,1111.68Z" style="fill:rgb(249,167,25);fill-rule:nonzero;"/>
                    </g>
                    <g transform="matrix(1.47792,0,0,1.47792,10176.3,3238.7)">
                        <path d="M1154.27,1111.68C1148.86,1079.52 1170.52,1049.04 1202.69,1043.62C1234.85,1038.2 1265.31,1059.88 1270.74,1092.04C1276.18,1124.2 1254.49,1154.68 1222.32,1160.1C1190.17,1165.52 1159.69,1143.85 1154.27,1111.68Z" style="fill:none;stroke:rgb(249,167,25);stroke-width:0.51px;"/>
                    </g>
                    <g transform="matrix(1.47792,0,0,1.47792,10176.3,3238.7)">
                        <path d="M1234.59,1047.02C1248.44,1058.21 1256.05,1072.23 1257.99,1083.78C1267.38,1139.43 1216.55,1160.8 1168.71,1141.44C1181.78,1155.85 1201.71,1163.51 1222.31,1160.04C1254.48,1154.61 1276.16,1124.14 1270.73,1091.98C1267.19,1070.99 1252.97,1054.46 1234.59,1047.02Z" style="fill:rgb(235,131,35);fill-rule:nonzero;"/>
                    </g>
                    <g transform="matrix(1.47792,0,0,1.47792,10176.3,3238.7)">
                        <path d="M1165.37,1115.29C1160.58,1086.9 1179.71,1060 1208.11,1055.22C1224.71,1052.42 1240.78,1057.8 1252.25,1068.41C1240.77,1054.5 1222.38,1046.93 1203.32,1050.14C1174.93,1054.93 1155.79,1081.83 1160.58,1110.22C1162.56,1122.02 1168.38,1132.21 1176.51,1139.77C1170.9,1132.96 1166.94,1124.62 1165.37,1115.29Z" style="fill:rgb(255,216,13);fill-rule:nonzero;"/>
                    </g>
                    <g transform="matrix(1.47792,0,0,1.47792,10176.3,3238.7)">
                        <rect x="1125.44" y="1151.86" width="143.19" height="18.36" style="fill:rgb(249,165,26);"/>
                    </g>
                    <g transform="matrix(1.47792,0,0,1.47792,10176.3,3238.7)">
                        <rect x="1250.48" y="1151.86" width="18.15" height="18.36" style="fill:rgb(249,165,26);"/>
                    </g>
                    <g transform="matrix(1.47792,0,0,1.47792,10176.3,3238.7)">
                        <rect x="1232.13" y="1151.86" width="18.36" height="18.36" style="fill:rgb(255,209,19);"/>
                    </g>
                    <g transform="matrix(1.47792,0,0,1.47792,10176.3,3238.7)">
                        <rect x="1166.12" y="1151.86" width="66.01" height="18.36" style="fill:rgb(249,167,25);"/>
                    </g>
                    <g transform="matrix(1.47792,0,0,1.47792,10176.3,3238.7)">
                        <rect x="1138.34" y="1151.86" width="27.77" height="18.36" style="fill:rgb(235,131,35);"/>
                    </g>
                    <g transform="matrix(1.47792,0,0,1.47792,10176.3,3238.7)">
                        <rect x="1132.23" y="1170.22" width="129.4" height="1.75" style="fill:rgb(222,100,38);"/>
                    </g>
                    <g transform="matrix(1.47792,0,0,1.47792,10176.3,3238.7)">
                        <path d="M1204.43,1078.53L1203.41,1072.27L1210.42,1071.14L1211.41,1077.25C1219.38,1076.86 1225.1,1079.77 1228.56,1085.97L1217.74,1091.37C1216.07,1088.48 1213.45,1087.32 1209.88,1087.9C1206.86,1088.38 1205.52,1089.59 1205.84,1091.53C1205.94,1092.23 1206.31,1092.79 1206.89,1093.21C1207.49,1093.62 1208.97,1093.9 1211.35,1094.03C1216.8,1094.31 1220.76,1094.72 1223.18,1095.26C1225.61,1095.81 1227.75,1097.04 1229.62,1098.97C1231.49,1100.9 1232.67,1103.33 1233.13,1106.3C1233.81,1110.45 1232.89,1114.16 1230.4,1117.44C1227.89,1120.73 1224.11,1123.08 1219.03,1124.49L1220.03,1130.76L1213.04,1131.88L1212.02,1125.62C1203.08,1126 1196.82,1122.25 1193.24,1114.42L1205.6,1110C1207.3,1113.54 1210.33,1114.96 1214.75,1114.25C1218.19,1113.7 1219.76,1112.47 1219.47,1110.59C1219.3,1109.59 1218.77,1108.88 1217.88,1108.46C1217,1108.03 1215.49,1107.77 1213.39,1107.68C1205.12,1107.36 1199.7,1106.1 1197.15,1103.94C1194.6,1101.75 1193.05,1099.03 1192.53,1095.76C1191.95,1092.14 1192.6,1088.75 1194.5,1085.56C1196.41,1082.39 1199.71,1080.04 1204.43,1078.53Z" style="fill:rgb(255,216,13);"/>
                    </g>
                </g>
            </g>
        </g>
    </g>
    <defs>
        <linearGradient id="_Linear2" x1="0" y1="0" x2="1" y2="0" gradientUnits="userSpaceOnUse" gradientTransform="matrix(159.65,-450.51,450.51,159.65,772.197,997.204)"><stop offset="0" style="stop-color:rgb(56,80,161);stop-opacity:1"/><stop offset="1" style="stop-color:rgb(112,181,226);stop-opacity:1"/></linearGradient>
        <linearGradient id="_Linear3" x1="0" y1="0" x2="1" y2="0" gradientUnits="userSpaceOnUse" gradientTransform="matrix(3.25358e-15,-531.35,531.35,3.25358e-15,848.29,1182.48)"><stop offset="0" style="stop-color:rgb(91,147,205);stop-opacity:1"/><stop offset="1" style="stop-color:rgb(226,239,249);stop-opacity:1"/></linearGradient>
        <linearGradient id="_Linear4" x1="0" y1="0" x2="1" y2="0" gradientUnits="userSpaceOnUse" gradientTransform="matrix(46.93,-176.38,176.38,46.93,945.36,931.892)"><stop offset="0" style="stop-color:rgb(54,91,168);stop-opacity:1"/><stop offset="1" style="stop-color:rgb(103,182,228);stop-opacity:1"/></linearGradient>
    </defs>
</svg>
